<?xml version="1.0" encoding="UTF-8"?>
<svg width="196px" height="34px" viewBox="0 0 196 34" version="1.1" xmlns="http://www.w3.org/2000/svg" xmlns:xlink="http://www.w3.org/1999/xlink">
    <title>Group 2</title>
    <g id="Symbols" stroke="none" stroke-width="1" fill="none" fill-rule="evenodd">
        <g id="Footer" transform="translate(-620.000000, -62.000000)">
            <g id="Group-2" transform="translate(620.000000, 62.000000)">
                <g id="Group-6" transform="translate(43.000000, 0.000000)" fill="#363636" fill-rule="nonzero">
                    <path d="M6.33502,26.14 C8.59835333,26.14 10.1383533,25.3816667 10.95502,23.865 L10.95502,23.865 L10.95502,26 L15.12002,26 L15.12002,14.66 C15.12002,10.18 12.7166867,7.94 7.91002,7.94 C5.41335333,7.94 3.50002,8.34833333 2.17002,9.165 L2.17002,9.165 L2.17002,13.05 C3.75668667,12 5.49502,11.475 7.38502,11.475 C8.62168667,11.475 9.49668667,11.7316667 10.01002,12.245 C10.5233533,12.7583333 10.78002,13.505 10.78002,14.485 L10.78002,14.485 L10.78002,15.57 L8.19002,15.57 C5.81002,15.57 3.99002,16.0483333 2.73002,17.005 C1.47002,17.9616667 0.84002,19.28 0.84002,20.96 C0.84002,22.4533333 1.33585333,23.69 2.32752,24.67 C3.31918667,25.65 4.65502,26.14 6.33502,26.14 Z M7.80502,23.025 C6.07835333,23.025 5.21502,22.2783333 5.21502,20.785 C5.21502,20.085 5.50668667,19.5075 6.09002,19.0525 C6.67335333,18.5975 7.51335333,18.37 8.61002,18.37 L8.61002,18.37 L10.78002,18.37 L10.78002,20.05 C10.78002,20.9366667 10.51752,21.6541667 9.99252,22.2025 C9.46752,22.7508333 8.73835333,23.025 7.80502,23.025 Z M26.394395,26.175 C27.6777283,26.175 28.7277283,25.9766667 29.544395,25.58 L29.544395,25.58 L29.544395,21.975 C28.7977283,22.465 27.9810617,22.71 27.094395,22.71 C26.394395,22.71 25.8460617,22.5175 25.449395,22.1325 C25.0527283,21.7475 24.854395,21.1816667 24.854395,20.435 L24.854395,20.435 L24.854395,11.405 L29.264395,11.405 L29.264395,8.255 L24.854395,8.255 L24.854395,3.985 L20.654395,3.985 L20.654395,8.255 L17.994395,8.255 L17.994395,11.405 L20.654395,11.405 L20.654395,20.365 C20.654395,24.2383333 22.5677283,26.175 26.394395,26.175 Z M39.94377,26.175 C41.2271033,26.175 42.2771033,25.9766667 43.09377,25.58 L43.09377,25.58 L43.09377,21.975 C42.3471033,22.465 41.5304367,22.71 40.64377,22.71 C39.94377,22.71 39.3954367,22.5175 38.99877,22.1325 C38.6021033,21.7475 38.40377,21.1816667 38.40377,20.435 L38.40377,20.435 L38.40377,11.405 L42.81377,11.405 L42.81377,8.255 L38.40377,8.255 L38.40377,3.985 L34.20377,3.985 L34.20377,8.255 L31.54377,8.255 L31.54377,11.405 L34.20377,11.405 L34.20377,20.365 C34.20377,24.2383333 36.1171033,26.175 39.94377,26.175 Z M51.043145,26 L51.043145,16.83 C51.043145,15.43 51.4048117,14.2633333 52.128145,13.33 C52.8514783,12.3966667 53.7848117,11.93 54.928145,11.93 C55.5814783,11.93 56.1764783,12.0466667 56.713145,12.28 L56.713145,12.28 L56.713145,8.22 C56.4098117,8.15 56.013145,8.115 55.523145,8.115 C53.353145,8.115 51.8598117,9.21166667 51.043145,11.405 L51.043145,11.405 L51.043145,8.255 L46.843145,8.255 L46.808145,26 L51.043145,26 Z M64.10252,26.14 C66.3658533,26.14 67.9058533,25.3816667 68.72252,23.865 L68.72252,23.865 L68.72252,26 L72.88752,26 L72.88752,14.66 C72.88752,10.18 70.4841867,7.94 65.67752,7.94 C63.1808533,7.94 61.26752,8.34833333 59.93752,9.165 L59.93752,9.165 L59.93752,13.05 C61.5241867,12 63.26252,11.475 65.15252,11.475 C66.3891867,11.475 67.2641867,11.7316667 67.77752,12.245 C68.2908533,12.7583333 68.54752,13.505 68.54752,14.485 L68.54752,14.485 L68.54752,15.57 L65.95752,15.57 C63.57752,15.57 61.75752,16.0483333 60.49752,17.005 C59.23752,17.9616667 58.60752,19.28 58.60752,20.96 C58.60752,22.4533333 59.1033533,23.69 60.09502,24.67 C61.0866867,25.65 62.42252,26.14 64.10252,26.14 Z M65.57252,23.025 C63.8458533,23.025 62.98252,22.2783333 62.98252,20.785 C62.98252,20.085 63.2741867,19.5075 63.85752,19.0525 C64.4408533,18.5975 65.2808533,18.37 66.37752,18.37 L66.37752,18.37 L68.54752,18.37 L68.54752,20.05 C68.54752,20.9366667 68.28502,21.6541667 67.76002,22.2025 C67.23502,22.7508333 66.5058533,23.025 65.57252,23.025 Z M85.736895,26.315 C87.5802283,26.315 89.1202283,25.9533333 90.356895,25.23 L90.356895,25.23 L90.356895,21.59 C89.1202283,22.3833333 87.7785617,22.78 86.331895,22.78 C84.6752283,22.78 83.3627283,22.2666667 82.394395,21.24 C81.4260617,20.2133333 80.9185617,18.86 80.871895,17.18 C80.8952283,15.4766667 81.4085617,14.1116667 82.411895,13.085 C83.4152283,12.0583333 84.7335617,11.545 86.366895,11.545 C87.8602283,11.545 89.1902283,11.9183333 90.356895,12.665 L90.356895,12.665 L90.356895,8.955 C89.1435617,8.30166667 87.6735617,7.975 85.946895,7.975 C83.0535617,7.975 80.7727283,8.86166667 79.104395,10.635 C77.4360617,12.4083333 76.5902283,14.59 76.566895,17.18 C76.566895,19.8166667 77.4127283,21.9983333 79.104395,23.725 C80.7960617,25.4516667 83.006895,26.315 85.736895,26.315 Z M100.89627,26.175 C102.179603,26.175 103.229603,25.9766667 104.04627,25.58 L104.04627,25.58 L104.04627,21.975 C103.299603,22.465 102.482937,22.71 101.59627,22.71 C100.89627,22.71 100.347937,22.5175 99.95127,22.1325 C99.5546033,21.7475 99.35627,21.1816667 99.35627,20.435 L99.35627,20.435 L99.35627,11.405 L103.76627,11.405 L103.76627,8.255 L99.35627,8.255 L99.35627,3.985 L95.15627,3.985 L95.15627,8.255 L92.49627,8.255 L92.49627,11.405 L95.15627,11.405 L95.15627,20.365 C95.15627,24.2383333 97.0696033,26.175 100.89627,26.175 Z M112.170645,26 L112.170645,8.255 L107.970645,8.255 L107.970645,26 L112.170645,26 Z M122.74502,26 L122.74502,11.405 L126.28002,11.405 L126.28002,8.255 L122.74502,8.255 L122.74502,7.24 C122.74502,5.32666667 123.596687,4.37 125.30002,4.37 C125.86002,4.37 126.443353,4.48666667 127.05002,4.72 L127.05002,4.72 L127.05002,1.185 C126.396687,0.975 125.626687,0.87 124.74002,0.87 C122.803353,0.87 121.286687,1.43 120.19002,2.55 C119.093353,3.67 118.54502,5.22166667 118.54502,7.205 L118.54502,7.205 L118.54502,8.255 L115.95502,8.255 L115.95502,11.405 L118.54502,11.405 L118.54502,26 L122.74502,26 Z M130.344395,32.615 C133.984395,32.615 136.691062,30.2466667 138.464395,25.51 L138.464395,25.51 L144.869395,8.255 L140.459395,8.255 L138.604395,13.925 C137.344395,17.705 136.597728,20.0033333 136.364395,20.82 L136.364395,20.82 L136.259395,20.33 C136.166062,20.0266667 135.926895,19.3033333 135.541895,18.16 C135.156895,17.0166667 134.649395,15.605 134.019395,13.925 L134.019395,13.925 L131.954395,8.255 L127.299395,8.255 L134.299395,25.65 C133.412728,27.96 131.907728,29.115 129.784395,29.115 C129.364395,29.115 128.967728,29.0683333 128.594395,28.975 L128.594395,28.975 L128.594395,32.44 C129.084395,32.5566667 129.667728,32.615 130.344395,32.615 Z M149.38877,26.28 C150.135437,26.28 150.77127,26.0116667 151.29627,25.475 C151.82127,24.9383333 152.08377,24.2966667 152.08377,23.55 C152.08377,22.8033333 151.82127,22.1675 151.29627,21.6425 C150.77127,21.1175 150.135437,20.855 149.38877,20.855 C148.642103,20.855 148.000437,21.1175 147.46377,21.6425 C146.927103,22.1675 146.65877,22.8033333 146.65877,23.55 C146.65877,24.2966667 146.927103,24.9383333 147.46377,25.475 C148.000437,26.0116667 148.642103,26.28 149.38877,26.28 Z" id="attractify."></path>
                </g>
                <g id="Group-8" transform="translate(0.000000, 1.500000)" fill="#28DECE">
                    <g id="Group-5" transform="translate(0.000000, 0.200000)">
                        <g id="Group-7" transform="translate(0.559980, 0.540000)">
                            <polygon id="Fill-2" points="34.74036 23.83124 23.69916 23.83124 29.14002 14.76"></polygon>
                            <path d="M25.44002,9.02 L19.3404,0.36 L0.44002,29.26 C0.44002,29.26 12.5568,30.765 17.3022,23.5812 L25.44002,9.02 Z" id="Fill-3"></path>
                        </g>
                    </g>
                </g>
            </g>
        </g>
    </g>
</svg>