<svg xmlns="http://www.w3.org/2000/svg" width="202" height="44" viewBox="0 0 202 44"><g fill="none" fill-rule="evenodd" transform="translate(0 5.87)"><g fill="#000" fill-rule="nonzero" transform="translate(42.98)"><path d="M7.455 16.17 14.105 16.17 13.79 15.12C12.9966667 12.6 12.3491667 10.4825 11.8475 8.7675 11.3458333 7.0525 11.0366667 5.97333333 10.92 5.53L10.78 4.83C10.57 5.99666667 9.56666667 9.43833333 7.77 15.155L7.455 16.17ZM16.905 25.13 15.225 19.775 6.3 19.775 4.62 25.13 0 25.13 7.98 1.54 13.685 1.54 21.665 25.13 16.905 25.13ZM30.295 10.535 30.295 19.565C30.295 20.3116667 30.4933333 20.8775 30.89 21.2625 31.2866667 21.6475 31.835 21.84 32.535 21.84 33.4216667 21.84 34.2383333 21.595 34.985 21.105L34.985 24.71C34.1683333 25.1066667 33.1183333 25.305 31.835 25.305 28.0083333 25.305 26.095 23.3683333 26.095 19.495L26.095 10.535 23.435 10.535 23.435 7.385 26.095 7.385 26.095 3.115 30.295 3.115 30.295 7.385 34.705 7.385 34.705 10.535 30.295 10.535ZM43.86 10.535 43.86 19.565C43.86 20.3116667 44.0583333 20.8775 44.455 21.2625 44.8516667 21.6475 45.4 21.84 46.1 21.84 46.9866667 21.84 47.8033333 21.595 48.55 21.105L48.55 24.71C47.7333333 25.1066667 46.6833333 25.305 45.4 25.305 41.5733333 25.305 39.66 23.3683333 39.66 19.495L39.66 10.535 37 10.535 37 7.385 39.66 7.385 39.66 3.115 43.86 3.115 43.86 7.385 48.27 7.385 48.27 10.535 43.86 10.535ZM56.515 7.385 56.515 10.535C57.3316667 8.34166667 58.825 7.245 60.995 7.245 61.485 7.245 61.8816667 7.28 62.185 7.35L62.185 11.41C61.6483333 11.1766667 61.0533333 11.06 60.4 11.06 59.2566667 11.06 58.3233333 11.5266667 57.6 12.46 56.8766667 13.3933333 56.515 14.56 56.515 15.96L56.515 25.13 52.28 25.13 52.315 7.385 56.515 7.385ZM74.035 17.5 71.865 17.5C70.7683333 17.5 69.9283333 17.7275 69.345 18.1825 68.7616667 18.6375 68.47 19.215 68.47 19.915 68.47 21.4083333 69.3333333 22.155 71.06 22.155 71.9933333 22.155 72.7225 21.8808333 73.2475 21.3325 73.7725 20.7841667 74.035 20.0666667 74.035 19.18L74.035 17.5ZM65.425 12.18 65.425 8.295C66.755 7.47833333 68.6683333 7.07 71.165 7.07 75.9716667 7.07 78.375 9.31 78.375 13.79L78.375 25.13 74.21 25.13 74.21 22.995C73.3933333 24.5116667 71.8533333 25.27 69.59 25.27 67.91 25.27 66.5741667 24.78 65.5825 23.8 64.5908333 22.82 64.095 21.5833333 64.095 20.09 64.095 18.41 64.725 17.0916667 65.985 16.135 67.245 15.1783333 69.065 14.7 71.445 14.7L74.035 14.7 74.035 13.615C74.035 12.635 73.7783333 11.8883333 73.265 11.375 72.7516667 10.8616667 71.8766667 10.605 70.64 10.605 68.75 10.605 67.0116667 11.13 65.425 12.18ZM86.375 16.31C86.4216667 17.99 86.9291667 19.3433333 87.8975 20.37 88.8658333 21.3966667 90.1783333 21.91 91.835 21.91 93.2816667 21.91 94.6233333 21.5133333 95.86 20.72L95.86 24.36C94.6233333 25.0833333 93.0833333 25.445 91.24 25.445 88.51 25.445 86.2991667 24.5816667 84.6075 22.855 82.9158333 21.1283333 82.07 18.9466667 82.07 16.31 82.0933333 13.72 82.9391667 11.5383333 84.6075 9.765 86.2758333 7.99166667 88.5566667 7.105 91.45 7.105 93.1766667 7.105 94.6466667 7.43166667 95.86 8.085L95.86 11.795C94.6933333 11.0483333 93.3633333 10.675 91.87 10.675 90.2366667 10.675 88.9183333 11.1883333 87.915 12.215 86.9116667 13.2416667 86.3983333 14.6066667 86.375 16.31ZM104.875 10.535 104.875 19.565C104.875 20.3116667 105.073333 20.8775 105.47 21.2625 105.866667 21.6475 106.415 21.84 107.115 21.84 108.001667 21.84 108.818333 21.595 109.565 21.105L109.565 24.71C108.748333 25.1066667 107.698333 25.305 106.415 25.305 102.588333 25.305 100.675 23.3683333 100.675 19.495L100.675 10.535 98.015 10.535 98.015 7.385 100.675 7.385 100.675 3.115 104.875 3.115 104.875 7.385 109.285 7.385 109.285 10.535 104.875 10.535Z"/><polygon points="113.505 25.13 113.505 7.385 117.705 7.385 117.705 25.13"/><path d="M132.6.315 132.6 3.85C131.993333 3.61666667 131.41 3.5 130.85 3.5 129.146667 3.5 128.295 4.45666667 128.295 6.37L128.295 7.385 131.83 7.385 131.83 10.535 128.295 10.535 128.295 25.13 124.095 25.13 124.095 10.535 121.505 10.535 121.505 7.385 124.095 7.385 124.095 6.335C124.095 4.35166667 124.643333 2.8 125.74 1.68 126.836667.56 128.353333 0 130.29 0 131.176667 0 131.946667.105 132.6.315ZM139.865 24.78 132.865 7.385 137.52 7.385 139.585 13.055C140.215 14.735 140.7225 16.1466667 141.1075 17.29 141.4925 18.4333333 141.731667 19.1566667 141.825 19.46L141.93 19.95C142.163333 19.1333333 142.91 16.835 144.17 13.055L146.025 7.385 150.435 7.385 144.03 24.64C142.256667 29.3766667 139.55 31.745 135.91 31.745 135.233333 31.745 134.65 31.6866667 134.16 31.57L134.16 28.105C134.533333 28.1983333 134.93 28.245 135.35 28.245 137.473333 28.245 138.978333 27.09 139.865 24.78ZM153.045 24.605C152.508333 24.0683333 152.24 23.4266667 152.24 22.68 152.24 21.9333333 152.508333 21.2975 153.045 20.7725 153.581667 20.2475 154.223333 19.985 154.97 19.985 155.716667 19.985 156.3525 20.2475 156.8775 20.7725 157.4025 21.2975 157.665 21.9333333 157.665 22.68 157.665 23.4266667 157.4025 24.0683333 156.8775 24.605 156.3525 25.1416667 155.716667 25.41 154.97 25.41 154.223333 25.41 153.581667 25.1416667 153.045 24.605Z"/></g><g fill="#28DECE" transform="translate(.56 1.37)"><polygon points="34.74 23.831 23.699 23.831 29.14 14.76"/><path d="M25.44002,9.02 L19.3404,0.36 L0.44002,29.26 C0.44002,29.26 12.5568,30.765 17.3022,23.5812 L25.44002,9.02 Z"/></g></g></svg>